<svg width="52" height="68" viewBox="0 0 52 68" fill="none" xmlns="http://www.w3.org/2000/svg">
<g filter="url(#filter0_d_249_425)">
<path d="M47.4732 29.4921C46.5767 29.4886 45.7005 29.7585 44.9614 30.2658C44.6574 29.3885 44.0885 28.6272 43.3333 28.0869C42.5781 27.5466 41.6739 27.254 40.7453 27.2495C39.8489 27.2459 38.9727 27.5159 38.2336 28.0232C37.9295 27.1459 37.3607 26.3846 36.6055 25.8443C35.8503 25.304 34.9461 25.0114 34.0175 25.0069C33.2271 25.0102 32.4522 25.2272 31.7749 25.6348V14.9152C31.7754 14.2489 31.6274 13.5908 31.3417 12.9888C31.056 12.3868 30.6397 11.8561 30.1232 11.4351C29.6067 11.0142 29.0029 10.7136 28.3556 10.5553C27.7084 10.3969 27.034 10.3847 26.3815 10.5197C25.3508 10.752 24.4319 11.333 23.7802 12.1645C23.1285 12.996 22.7838 14.0271 22.8045 15.0834V41.0864L19.7321 37.5767C18.7819 36.4986 17.454 35.8265 16.0226 35.6992C14.5912 35.5719 13.1655 35.9992 12.04 36.8927L11.2551 37.5207C10.616 38.0151 10.1824 38.7283 10.0375 39.5231C9.89257 40.318 10.0467 41.1384 10.4702 41.8265L18.4651 54.7214C20.0001 57.5293 22.2434 59.8864 24.9718 61.5585C27.7003 63.2306 30.8188 64.1594 34.0175 64.2525C38.7757 64.2525 43.3391 62.3623 46.7036 58.9978C50.0682 55.6332 51.9584 51.0699 51.9584 46.3117V33.9773C51.9584 32.7878 51.4858 31.647 50.6447 30.8058C49.8036 29.9647 48.6627 29.4921 47.4732 29.4921ZM49.7158 46.3117C49.7158 50.4751 48.0619 54.468 45.1179 57.412C42.1739 60.356 38.181 62.0099 34.0175 62.0099C31.2082 61.9158 28.4725 61.088 26.0824 59.6086C23.6922 58.1293 21.731 56.0501 20.3937 53.5777L12.4212 40.6155C12.292 40.4004 12.2447 40.1459 12.288 39.8988C12.3312 39.6516 12.4621 39.4283 12.6567 39.2699L13.4416 38.642C14.117 38.1084 14.9713 37.854 15.8286 37.9312C16.6858 38.0083 17.4809 38.4112 18.0502 39.0568L23.0848 44.8091C23.2354 44.9799 23.4343 45.1007 23.6552 45.1556C23.8761 45.2106 24.1085 45.197 24.3215 45.1166C24.5345 45.0363 24.718 44.8931 24.8476 44.7059C24.9772 44.5188 25.0468 44.2967 25.0471 44.0691V15.0834C25.0216 14.5394 25.1836 14.0032 25.5061 13.5643C25.8286 13.1255 26.292 12.8107 26.8188 12.6726C27.1851 12.596 27.5648 12.6123 27.9232 12.72C28.2816 12.8277 28.6073 13.0234 28.8707 13.2893C29.0847 13.5019 29.2535 13.7555 29.3672 14.0348C29.4809 14.3142 29.537 14.6136 29.5323 14.9152V37.3413C29.5323 37.6386 29.6505 37.9239 29.8607 38.1341C30.071 38.3444 30.3562 38.4626 30.6536 38.4626C30.951 38.4626 31.2362 38.3444 31.4465 38.1341C31.6568 37.9239 31.7749 37.6386 31.7749 37.3413V29.4921C31.7749 28.8974 32.0112 28.3269 32.4318 27.9064C32.8523 27.4858 33.4228 27.2495 34.0175 27.2495C34.6123 27.2495 35.1827 27.4858 35.6033 27.9064C36.0239 28.3269 36.2601 28.8974 36.2601 29.4921V37.3413C36.2601 37.6386 36.3783 37.9239 36.5886 38.1341C36.7988 38.3444 37.0841 38.4626 37.3814 38.4626C37.6788 38.4626 37.964 38.3444 38.1743 38.1341C38.3846 37.9239 38.5027 37.6386 38.5027 37.3413V31.7347C38.5027 31.14 38.739 30.5695 39.1596 30.149C39.5802 29.7284 40.1506 29.4921 40.7453 29.4921C41.3401 29.4921 41.9105 29.7284 42.3311 30.149C42.7517 30.5695 42.988 31.14 42.988 31.7347V37.3413C42.988 37.6386 43.1061 37.9239 43.3164 38.1341C43.5267 38.3444 43.8119 38.4626 44.1093 38.4626C44.4066 38.4626 44.6919 38.3444 44.9021 38.1341C45.1124 37.9239 45.2306 37.6386 45.2306 37.3413V33.9773C45.2306 33.3826 45.4668 32.8122 45.8874 32.3916C46.308 31.971 46.8784 31.7347 47.4732 31.7347C48.0679 31.7347 48.6384 31.971 49.0589 32.3916C49.4795 32.8122 49.7158 33.3826 49.7158 33.9773V46.3117Z" fill="white"/>
<rect x="7.73438" y="2.48682" width="2.23342" height="7.89854" fill="white"/>
<path d="M8.85114 0.0522461L11.9884 3.09125H5.71387L8.85114 0.0522461Z" fill="white"/>
<rect x="9.96802" y="16.1323" width="2.23342" height="7.89854" transform="rotate(180 9.96802 16.1323)" fill="white"/>
<path d="M8.85125 18.5674L5.71397 15.5284L11.9885 15.5284L8.85125 18.5674Z" fill="white"/>
<rect x="2.47705" y="10.4268" width="2.23342" height="7.50744" transform="rotate(-90 2.47705 10.4268)" fill="white"/>
<path d="M0.0417479 9.3095L3.08075 6.17222L3.08075 12.4468L0.0417479 9.3095Z" fill="white"/>
<rect x="15.2256" y="8.19238" width="2.23342" height="7.50744" transform="rotate(90 15.2256 8.19238)" fill="white"/>
<path d="M17.6606 9.30964L14.6216 12.4469L14.6216 6.17236L17.6606 9.30964Z" fill="white"/>
</g>
<defs>
<filter id="filter0_d_249_425" x="0.041748" y="0.0522461" width="51.9167" height="67.0074" filterUnits="userSpaceOnUse" color-interpolation-filters="sRGB">
<feFlood flood-opacity="0" result="BackgroundImageFix"/>
<feColorMatrix in="SourceAlpha" type="matrix" values="0 0 0 0 0 0 0 0 0 0 0 0 0 0 0 0 0 0 127 0" result="hardAlpha"/>
<feOffset dy="2.80718"/>
<feComposite in2="hardAlpha" operator="out"/>
<feColorMatrix type="matrix" values="0 0 0 0 0 0 0 0 0 0 0 0 0 0 0 0 0 0 0.07 0"/>
<feBlend mode="normal" in2="BackgroundImageFix" result="effect1_dropShadow_249_425"/>
<feBlend mode="normal" in="SourceGraphic" in2="effect1_dropShadow_249_425" result="shape"/>
</filter>
</defs>
</svg>