<svg width="178" height="167" viewBox="0 0 178 167" fill="none" xmlns="http://www.w3.org/2000/svg">
<path d="M168.284 0.650585C163.83 0.835638 159.366 0.682969 154.902 0.692222C147.1 0.71998 142.122 5.67942 142.108 13.4933C142.089 25.3275 142.103 37.1617 142.103 48.9959V51.124H135.034C133.556 46.2432 132.466 41.3809 130.64 36.8055C121.392 13.646 97.8212 -1.24159 72.8548 0.0815445C44.9821 1.56197 21.8096 22.2926 17.457 49.7176C17.2484 51.0361 16.7524 51.2998 15.5704 51.2535C13.6049 51.1703 11.6303 51.2304 9.66021 51.2304C3.96792 51.2304 2.18792 52.3916 0 57.5268V60.645C0.89 62.8841 1.99786 65.1002 4.41292 65.882C6.34125 66.502 6.74453 67.5891 7.08292 69.4165C12.2282 97.2718 28.2343 115.902 55.1197 125.206C55.6343 125.386 56.1349 125.599 56.7282 125.835C53.057 131.807 49.2977 137.502 46.0065 143.457C44.2311 146.663 42.2935 148.694 38.4044 147.838C38.3488 147.824 38.2885 147.842 38.2283 147.847C35.0067 148.05 32.7353 150.354 32.6611 153.565C32.6102 155.818 32.6426 158.067 32.6472 160.32C32.6565 164.779 34.8908 166.986 39.401 166.991C48.3196 166.995 57.2428 166.991 66.1659 166.991V167H87.0114V166.991C95.726 167 104.445 167.005 113.16 166.977C116.469 166.968 118.931 164.715 119.121 161.425C119.269 158.779 119.26 156.11 119.126 153.463C118.963 150.137 116.599 147.963 113.253 147.838C112.21 147.801 111.157 147.741 110.128 147.847C108.909 147.972 108.274 147.444 107.667 146.441C103.782 140.015 99.8283 133.635 95.9068 127.237C95.6425 126.811 95.4154 126.358 95.1651 125.909C123.696 116.143 140.407 96.5408 145.265 66.9183C146.145 66.798 147.068 66.7101 147.976 66.5482C152.677 65.7108 157.011 61.7877 157.386 57.1012C157.419 56.6895 157.451 56.2777 157.474 55.866C157.502 55.4542 157.525 55.0425 157.549 54.6261C157.572 54.2144 157.59 53.8026 157.604 53.3909C157.623 52.9745 157.637 52.5628 157.646 52.1464C157.66 51.7347 157.669 51.3229 157.678 50.9065C157.702 49.6621 157.711 48.4222 157.711 47.1823C157.711 46.1923 157.706 45.193 157.697 44.203H157.702V27.7517C157.711 27.6869 157.711 27.6268 157.715 27.562C157.799 25.3136 157.743 23.0606 157.748 20.8076V16.2784C161.424 16.2784 164.84 16.135 168.242 16.3154C173.077 16.5652 176.387 14.7008 178 10.0698V6.95166C176.429 2.29756 173.128 0.451652 168.284 0.650585V0.650585ZM94.3446 8.51074C109.859 14.2289 120.433 25.0684 126.389 40.4186C122.037 36.6204 117.234 33.5624 111.959 31.2446C99.4297 25.7392 86.2327 23.8332 72.6509 24.2449C68.5022 24.3745 64.3628 24.8186 60.2465 25.1193C62.986 17.5367 61.5444 13.4609 54.4476 9.6442C67.7976 4.16661 81.0549 3.61144 94.3446 8.51074V8.51074ZM79.6226 35.6998C79.6365 38.4617 77.3141 40.8072 74.5653 40.8026C71.8768 40.8026 69.5869 38.5542 69.5266 35.8617C69.4617 33.0535 71.6682 30.7681 74.4865 30.7264C77.3048 30.6848 79.604 32.9147 79.6226 35.6998V35.6998ZM51.328 14.5805C54.1278 14.5527 56.4084 16.815 56.4084 19.614C56.413 22.4175 54.1417 24.6659 51.3326 24.6428C48.5467 24.6197 46.2429 22.2787 46.3032 19.5307C46.3588 16.8382 48.6302 14.6036 51.328 14.5805ZM41.0976 17.9115C40.8519 22.6026 42.4465 26.0908 46.178 28.4919C42.4836 30.2083 38.7428 31.6887 35.2663 33.641C31.8268 35.5748 28.6515 37.9852 25.3326 40.2058C28.5634 31.5546 33.7736 24.2264 41.0976 17.9115V17.9115ZM22.8202 53.6824C24.4889 48.8062 27.7661 45.1282 31.7758 42.0471C39.2713 36.2919 47.9117 33.1321 57.0666 31.2215C59.9452 30.62 62.8655 30.2314 66.0964 29.6901C64.6131 32.4243 63.8807 35.0151 64.5111 37.8279C65.1508 40.6731 66.6897 42.8891 69.1697 44.4343C73.0773 46.8724 78.1438 46.3774 81.5509 43.2453C85.2407 39.8496 85.8155 35.0521 82.974 29.6578C83.9891 29.7133 84.8513 29.7225 85.6996 29.815C96.3379 30.9624 106.513 33.6179 115.774 39.1556C120.294 41.8528 124.34 45.1282 127.038 49.7222C128.206 51.7162 128.943 53.9599 129.991 56.3471H22.1527C22.3891 55.3941 22.5328 54.5151 22.8202 53.6824ZM43.0677 101.653C34.7517 95.1992 28.9528 87.3066 25.3511 77.9013C28.976 80.2607 32.4572 82.8468 36.2397 84.887C40.0083 86.9226 44.0735 88.4077 48.0739 90.1657C44.106 92.7703 42.2472 96.4436 43.0677 101.653ZM53.0894 94.1675C55.9356 94.1582 58.1606 96.3696 58.142 99.1963C58.1281 101.986 55.7965 104.29 53.0477 104.239C50.3777 104.193 48.0832 101.903 48.0368 99.238C47.9905 96.4807 50.285 94.1767 53.0894 94.1675V94.1675ZM62.8841 102.324C63.9178 99.0436 63.3476 95.9532 61.4285 93.0525C84.9208 95.1992 107.296 93.1959 126.255 77.7625C117.438 104.554 84.5871 120.542 56.3296 108.995C59.5187 107.649 61.855 105.567 62.8841 102.324V102.324ZM96.959 77.4294C96.9729 74.6304 99.2721 72.382 102.072 72.4329C104.779 72.4746 107.032 74.7322 107.06 77.4247C107.092 80.1867 104.788 82.486 101.993 82.4906C99.1747 82.4998 96.9405 80.2514 96.959 77.4294V77.4294ZM111.982 80.7927C113.002 73.7653 110.62 68.8244 103.314 67.3439C99.0728 66.4834 94.6784 69.0418 92.7454 73.0158C90.5204 77.5867 91.6839 81.829 96.6392 86.46C93.7791 86.9643 91.1555 87.5379 88.4994 87.8757C73.1237 89.8326 58.1003 88.5095 43.6424 82.6942C37.0787 80.0571 31.099 76.481 26.5192 70.934C24.1042 68.0055 22.4864 64.4756 22.3149 61.7276H57.1825C53.3629 68.0749 53.7106 73.1176 58.1606 76.8418C62.0265 80.0803 67.7234 79.9924 71.543 76.6336C75.7705 72.9187 76.0533 67.6539 72.2152 61.6813H129.37C129.069 69.3795 119.608 77.5312 111.982 80.7927V80.7927ZM59.7227 68.9169C59.7459 66.0948 62.0172 63.8927 64.8495 63.9528C67.5519 64.013 69.8094 66.2799 69.8233 68.9539C69.8372 71.6742 67.4546 74.0475 64.7243 74.0383C61.9338 74.0244 59.6949 71.7343 59.7227 68.9169V68.9169ZM5.23339 58.8685C5.29828 57.5083 6.34589 56.4813 7.88948 56.4535C10.7681 56.4026 13.6467 56.4397 16.6133 56.4397V61.6027C13.5864 61.6027 10.6985 61.6721 7.81995 61.5749C6.22536 61.5194 5.15922 60.261 5.23339 58.8685V58.8685ZM111.588 153.019C111.936 153.019 112.284 153.042 112.631 153.019C113.605 152.959 113.98 153.412 113.962 154.365C113.929 156.211 113.864 158.062 113.985 159.903C114.087 161.476 113.461 161.832 111.978 161.828C103.657 161.777 95.332 161.781 87.0114 161.795V161.772H66.1659V161.795C57.4467 161.791 48.7229 161.749 40.0036 161.842C38.1773 161.86 37.6674 161.291 37.8296 159.584C37.9687 158.154 37.8574 156.697 37.8574 155.258C37.8605 153.769 38.6254 153.022 40.152 153.019H111.588V153.019ZM101.975 147.121C102.053 147.25 102.063 147.426 102.137 147.708H49.5851C49.8168 147.218 49.9605 146.806 50.183 146.441C53.8914 140.394 57.6321 134.366 61.2895 128.291C61.9199 127.246 62.5642 127.089 63.6767 127.292C71.835 128.796 80.0119 128.74 88.1749 127.311C89 127.167 89.6721 126.996 90.2423 127.94C94.1221 134.352 98.0622 140.727 101.975 147.121V147.121ZM76.438 123.147C41.6956 123.498 15.1532 96.3696 12.0892 66.8258C13.5401 66.8258 14.977 66.7379 16.3908 66.8813C16.7663 66.923 17.2901 67.64 17.3643 68.1119C18.8522 77.1379 22.0692 85.4931 27.4973 92.8721C39.948 109.791 56.756 118.451 77.8565 117.854C105.776 117.063 128.911 97.0312 134.112 69.6802C134.283 68.7827 134.413 67.876 134.58 66.9044H139.633C137.116 94.1767 112.288 122.781 76.438 123.147V123.147ZM172.739 8.73743C172.59 10.1022 171.705 10.9951 170.347 11.0321C170.069 11.0414 169.791 11.046 169.513 11.0552C169.406 11.0552 169.299 11.0552 169.188 11.0599C168.836 11.0691 168.488 11.0737 168.136 11.0737C167.116 11.0876 166.092 11.083 165.058 11.0784C161.549 11.0876 157.479 11.0645 155.407 11.0645H155.402C155.296 11.0922 155.189 11.1246 155.087 11.157C155.008 11.1848 154.93 11.2079 154.851 11.2403C154.832 11.2449 154.814 11.2495 154.795 11.2588C154.698 11.2958 154.6 11.3374 154.503 11.3791C154.447 11.4022 154.387 11.43 154.332 11.4623C154.322 11.4623 154.318 11.467 154.308 11.4716C154.262 11.4947 154.216 11.5179 154.174 11.5456C154.109 11.578 154.044 11.615 153.984 11.6567H153.979C153.914 11.6983 153.854 11.7399 153.789 11.7908C153.729 11.8325 153.673 11.8741 153.618 11.9204C153.562 11.9666 153.511 12.0083 153.465 12.0591C153.432 12.0869 153.404 12.1147 153.377 12.1517C153.349 12.1748 153.321 12.2026 153.302 12.2303C153.261 12.272 153.228 12.3136 153.196 12.3552C153.168 12.3876 153.14 12.42 153.122 12.457C153.08 12.5079 153.048 12.5634 153.015 12.6189C153.006 12.6236 153.001 12.6282 153.001 12.6374C152.969 12.6883 152.941 12.7346 152.913 12.7901C152.904 12.8132 152.89 12.8364 152.881 12.8595C152.871 12.8688 152.871 12.878 152.867 12.8873C152.844 12.9335 152.825 12.9798 152.802 13.0307C152.788 13.0631 152.774 13.1001 152.765 13.1325C152.76 13.1417 152.756 13.151 152.756 13.1602C152.732 13.2157 152.714 13.2759 152.695 13.336C152.695 13.3545 152.686 13.373 152.681 13.3915C152.681 13.3962 152.677 13.4008 152.677 13.4054C152.654 13.4979 152.63 13.5905 152.616 13.6876C152.593 13.7987 152.579 13.9097 152.57 14.03C152.561 14.1456 152.552 14.2705 152.552 14.3955C152.528 18.7812 152.514 23.167 152.556 27.5574C152.556 27.6268 152.561 27.6962 152.565 27.7656V39.6738C152.556 39.7293 152.552 39.7848 152.547 39.8403C152.519 40.303 152.533 40.7656 152.533 41.2282C152.533 45.4428 152.542 49.6574 152.528 53.872C152.514 58.85 149.756 61.6073 144.801 61.6212C143.007 61.6258 141.209 61.6212 139.415 61.6212H135.122V56.634C135.326 56.5507 135.428 56.4674 135.535 56.4674C137.853 56.4489 140.166 56.4304 142.483 56.4258C146.252 56.4211 147.318 55.3617 147.318 51.5727C147.318 38.7578 147.3 25.9382 147.327 13.1232C147.332 11.6104 147.661 10.2919 148.264 9.20932C148.352 9.05202 148.445 8.89935 148.542 8.75594C148.625 8.6264 148.718 8.50149 148.811 8.3812C148.95 8.21003 149.094 8.04811 149.242 7.89081C150.09 7.02106 151.193 6.42426 152.496 6.14668C152.686 6.10504 152.881 6.06803 153.085 6.0449C153.544 5.97551 154.03 5.95237 154.536 5.96625C154.61 5.96625 154.684 5.97088 154.763 5.97551H154.832C154.957 5.98476 155.087 5.99401 155.217 6.00789V5.99864C157.252 5.99864 161.516 5.94775 165.239 5.96163H165.661C167.352 5.96625 168.905 5.98476 170.055 6.03102C170.222 6.04027 170.393 6.0449 170.56 6.05415C170.653 6.05878 170.741 6.06341 170.834 6.06803C172.113 6.14668 172.896 7.34028 172.739 8.73743V8.73743Z" fill="white"/>
</svg>