<svg width="213" height="178" viewBox="0 0 213 178" fill="none" xmlns="http://www.w3.org/2000/svg">
<path d="M28.3678 0.44043H35.4598V7.53239H28.3678V0.44043ZM21.2759 7.53239H28.3678V14.6243H21.2759V7.53239ZM28.3678 14.6243H35.4598V21.7163H28.3678V14.6243ZM35.4598 7.53239H42.5518V14.6243H35.4598V7.53239ZM180.845 156.464H187.937V163.555H180.845V156.464ZM173.753 163.555H180.845V170.647H173.753V163.555ZM180.845 170.647H187.937V177.739H180.845V170.647ZM187.937 163.555H195.029V170.647H187.937V163.555ZM209.213 35.9002H63.8276C62.8873 35.9004 61.9855 36.2741 61.3206 36.9392L56.7357 41.5241L52.1507 36.9392C51.4859 36.2741 50.5841 35.9004 49.6437 35.9002H3.54598C2.60553 35.9002 1.70359 36.2738 1.03859 36.9388C0.373593 37.6038 0 38.5058 0 39.4462L0 138.734C0 139.674 0.373593 140.576 1.03859 141.241C1.70359 141.906 2.60553 142.28 3.54598 142.28H49.6437C50.5841 142.279 51.4859 141.906 52.1507 141.241L56.7357 136.656L61.3206 141.241C61.9855 141.906 62.8873 142.279 63.8276 142.28H209.213C210.153 142.28 211.055 141.906 211.72 141.241C212.385 140.576 212.759 139.674 212.759 138.734V39.4462C212.759 38.5058 212.385 37.6038 211.72 36.9388C211.055 36.2738 210.153 35.9002 209.213 35.9002ZM205.667 135.188H65.2957L59.2427 129.135C58.5777 128.47 57.6759 128.096 56.7357 128.096C55.7954 128.096 54.8936 128.47 54.2287 129.135L48.1757 135.188H7.09196L7.09196 42.9922H48.1757L54.2287 49.0452C54.8936 49.7099 55.7954 50.0834 56.7357 50.0834C57.6759 50.0834 58.5777 49.7099 59.2427 49.0452L65.2957 42.9922H205.667V135.188Z" fill="white"/>
<path d="M53.1899 57.1758H60.2819V67.8137H53.1899V57.1758ZM53.1899 74.9057H60.2819V85.5436H53.1899V74.9057ZM53.1899 92.6356H60.2819V103.274H53.1899V92.6356ZM53.1899 110.365H60.2819V121.003H53.1899L53.1899 110.365ZM113.472 81.9976C115.576 81.9976 117.632 81.3737 119.382 80.2048C121.131 79.0359 122.495 77.3745 123.3 75.4307C124.105 73.4868 124.316 71.3479 123.905 69.2843C123.495 67.2208 122.481 65.3253 120.994 63.8375C119.506 62.3498 117.611 61.3366 115.547 60.9262C113.483 60.5157 111.344 60.7264 109.401 61.5315C107.457 62.3367 105.795 63.7002 104.626 65.4496C103.458 67.199 102.834 69.2557 102.834 71.3597C102.834 74.1811 103.954 76.8869 105.949 78.8819C107.944 80.8769 110.65 81.9976 113.472 81.9976ZM113.472 67.8137C114.173 67.8137 114.858 68.0217 115.442 68.4113C116.025 68.801 116.479 69.3548 116.748 70.0027C117.016 70.6507 117.086 71.3636 116.949 72.0515C116.813 72.7393 116.475 73.3712 115.979 73.8671C115.483 74.363 114.851 74.7007 114.163 74.8375C113.476 74.9744 112.763 74.9041 112.115 74.6358C111.467 74.3674 110.913 73.9129 110.523 73.3297C110.134 72.7466 109.926 72.061 109.926 71.3597C109.926 70.4192 110.299 69.5173 110.964 68.8523C111.629 68.1873 112.531 67.8137 113.472 67.8137ZM145.385 96.1816C143.281 96.1816 141.225 96.8055 139.475 97.9744C137.726 99.1433 136.362 100.805 135.557 102.749C134.752 104.692 134.541 106.831 134.952 108.895C135.362 110.958 136.376 112.854 137.863 114.342C139.351 115.829 141.246 116.843 143.31 117.253C145.374 117.663 147.513 117.453 149.456 116.648C151.4 115.843 153.062 114.479 154.231 112.73C155.399 110.98 156.023 108.923 156.023 106.819C156.023 103.998 154.903 101.292 152.908 99.2973C150.913 97.3023 148.207 96.1816 145.385 96.1816ZM145.385 110.365C144.684 110.365 143.999 110.158 143.415 109.768C142.832 109.378 142.378 108.824 142.109 108.176C141.841 107.529 141.771 106.816 141.908 106.128C142.044 105.44 142.382 104.808 142.878 104.312C143.374 103.816 144.006 103.478 144.694 103.342C145.381 103.205 146.094 103.275 146.742 103.543C147.39 103.812 147.944 104.266 148.334 104.849C148.723 105.433 148.931 106.118 148.931 106.819C148.931 107.76 148.558 108.662 147.893 109.327C147.228 109.992 146.326 110.365 145.385 110.365ZM103.78 111.5L149.878 61.8565L155.077 66.679L108.979 116.323L103.78 111.5Z" fill="white"/>
</svg>